<svg width="41" height="41" viewBox="0 0 41 41" fill="none" xmlns="http://www.w3.org/2000/svg">
<mask id="mask0_107_1188" style="mask-type:alpha" maskUnits="userSpaceOnUse" x="0" y="0" width="41" height="41">
<rect x="0.5" y="0.5" width="40" height="40" fill="#D9D9D9"/>
</mask>
<g mask="url(#mask0_107_1188)">
<path d="M8.83333 35.5C7.91667 35.5 7.13194 35.1736 6.47917 34.5208C5.82639 33.8681 5.5 33.0833 5.5 32.1667V8.83333C5.5 7.91667 5.82639 7.13194 6.47917 6.47917C7.13194 5.82639 7.91667 5.5 8.83333 5.5H20.5C20.9722 5.5 21.3681 5.65972 21.6875 5.97917C22.0069 6.29861 22.1667 6.69444 22.1667 7.16667C22.1667 7.63889 22.0069 8.03472 21.6875 8.35417C21.3681 8.67361 20.9722 8.83333 20.5 8.83333H8.83333V32.1667H32.1667V20.5C32.1667 20.0278 32.3264 19.6319 32.6458 19.3125C32.9653 18.9931 33.3611 18.8333 33.8333 18.8333C34.3056 18.8333 34.7014 18.9931 35.0208 19.3125C35.3403 19.6319 35.5 20.0278 35.5 20.5V32.1667C35.5 33.0833 35.1736 33.8681 34.5208 34.5208C33.8681 35.1736 33.0833 35.5 32.1667 35.5H8.83333ZM10.5 28.8333H30.5L24.25 20.5L19.25 27.1667L15.5 22.1667L10.5 28.8333ZM28.8333 12.1667H27.1667C26.6944 12.1667 26.2986 12.0069 25.9792 11.6875C25.6597 11.3681 25.5 10.9722 25.5 10.5C25.5 10.0278 25.6597 9.63194 25.9792 9.3125C26.2986 8.99306 26.6944 8.83333 27.1667 8.83333H28.8333V7.16667C28.8333 6.69444 28.9931 6.29861 29.3125 5.97917C29.6319 5.65972 30.0278 5.5 30.5 5.5C30.9722 5.5 31.3681 5.65972 31.6875 5.97917C32.0069 6.29861 32.1667 6.69444 32.1667 7.16667V8.83333H33.8333C34.3056 8.83333 34.7014 8.99306 35.0208 9.3125C35.3403 9.63194 35.5 10.0278 35.5 10.5C35.5 10.9722 35.3403 11.3681 35.0208 11.6875C34.7014 12.0069 34.3056 12.1667 33.8333 12.1667H32.1667V13.8333C32.1667 14.3056 32.0069 14.7014 31.6875 15.0208C31.3681 15.3403 30.9722 15.5 30.5 15.5C30.0278 15.5 29.6319 15.3403 29.3125 15.0208C28.9931 14.7014 28.8333 14.3056 28.8333 13.8333V12.1667Z" fill="#8E8E93"/>
</g>
</svg>
