<svg width="18" height="18" viewBox="0 0 18 18" fill="none" xmlns="http://www.w3.org/2000/svg">
<path d="M9.00033 5.66666C8.08366 5.66666 7.29894 5.99305 6.64616 6.64582C5.99338 7.2986 5.66699 8.08332 5.66699 8.99999C5.66699 9.62499 5.82324 10.2014 6.13574 10.7292C6.44824 11.2569 6.88227 11.6667 7.43783 11.9583C7.66005 12.0694 7.8163 12.2326 7.90658 12.4479C7.99685 12.6632 7.99338 12.8819 7.89616 13.1042C7.79894 13.2986 7.6531 13.4444 7.45866 13.5417C7.26421 13.6389 7.06977 13.6389 6.87533 13.5417C6.00033 13.125 5.30241 12.5069 4.78158 11.6875C4.26074 10.868 4.00033 9.97221 4.00033 8.99999C4.00033 7.6111 4.48644 6.43055 5.45866 5.45832C6.43088 4.4861 7.61144 3.99999 9.00033 3.99999C9.98644 3.99999 10.8927 4.26041 11.7191 4.78124C12.5455 5.30207 13.16 6.01388 13.5628 6.91666C13.6462 7.1111 13.6427 7.30555 13.5524 7.49999C13.4621 7.69443 13.3198 7.83332 13.1253 7.91666C12.9031 8.01388 12.6809 8.01388 12.4587 7.91666C12.2364 7.81943 12.0698 7.65971 11.9587 7.43749C11.667 6.88193 11.2573 6.44791 10.7295 6.13541C10.2017 5.82291 9.62533 5.66666 9.00033 5.66666ZM9.00033 2.33332C7.13921 2.33332 5.56283 2.97916 4.27116 4.27082C2.97949 5.56249 2.33366 7.13888 2.33366 8.99999C2.33366 10.75 2.91005 12.25 4.06283 13.5C5.2156 14.75 6.66005 15.4583 8.39616 15.625C8.63227 15.6528 8.83713 15.7569 9.01074 15.9375C9.18435 16.118 9.26421 16.3264 9.25033 16.5625C9.23644 16.7986 9.14963 16.993 8.98991 17.1458C8.83019 17.2986 8.63227 17.368 8.39616 17.3542C7.31283 17.2847 6.30241 17.0139 5.36491 16.5417C4.42741 16.0694 3.60796 15.4549 2.90658 14.6979C2.20519 13.941 1.65658 13.0729 1.26074 12.0937C0.864909 11.1146 0.666992 10.0833 0.666992 8.99999C0.666992 7.84721 0.885742 6.76388 1.32324 5.74999C1.76074 4.7361 2.35449 3.85416 3.10449 3.10416C3.85449 2.35416 4.73644 1.76041 5.75033 1.32291C6.76421 0.885406 7.84755 0.666656 9.00033 0.666656C11.1809 0.666656 13.0802 1.40971 14.6982 2.89582C16.3163 4.38193 17.2017 6.21527 17.3545 8.39582C17.3823 8.61805 17.3163 8.80902 17.1566 8.96874C16.9969 9.12846 16.7989 9.21527 16.5628 9.22916C16.3267 9.24305 16.1149 9.16666 15.9274 8.99999C15.7399 8.83332 15.6323 8.63194 15.6045 8.39582C15.3962 6.72916 14.6705 5.30207 13.4274 4.11457C12.1844 2.92707 10.7087 2.33332 9.00033 2.33332ZM15.292 16.9167L12.542 14.1875L11.917 16.0833C11.8475 16.2778 11.7156 16.3715 11.5212 16.3646C11.3267 16.3576 11.1948 16.2569 11.1253 16.0625L9.22949 9.74999C9.17394 9.59721 9.20866 9.45832 9.33366 9.33332C9.45866 9.20832 9.59755 9.1736 9.75033 9.22916L16.0628 11.125C16.2573 11.1944 16.358 11.3264 16.3649 11.5208C16.3719 11.7153 16.2781 11.8472 16.0837 11.9167L14.1878 12.5417L16.9378 15.2917C17.1739 15.5278 17.292 15.7986 17.292 16.1042C17.292 16.4097 17.1739 16.6805 16.9378 16.9167C16.7017 17.1528 16.4274 17.2708 16.1149 17.2708C15.8024 17.2708 15.5281 17.1528 15.292 16.9167Z" fill="#1C1B1F"/>
</svg>
