<svg width="19" height="17" viewBox="0 0 19 17" fill="none" xmlns="http://www.w3.org/2000/svg">
<path d="M10.3337 8.5V5.5C10.3337 5.26389 10.2538 5.06597 10.0941 4.90625C9.93435 4.74653 9.73644 4.66667 9.50033 4.66667C9.26422 4.66667 9.0663 4.74653 8.90658 4.90625C8.74685 5.06597 8.66699 5.26389 8.66699 5.5V8.8125C8.66699 8.92361 8.68783 9.03125 8.72949 9.13542C8.77116 9.23958 8.83366 9.33333 8.91699 9.41667L11.2503 11.75C11.4031 11.9028 11.5975 11.9792 11.8337 11.9792C12.0698 11.9792 12.2642 11.9028 12.417 11.75C12.5698 11.5972 12.6462 11.4028 12.6462 11.1667C12.6462 10.9306 12.5698 10.7361 12.417 10.5833L10.3337 8.5ZM9.50033 16.3333C8.45866 16.3333 7.48296 16.1354 6.57324 15.7396C5.66352 15.3438 4.87185 14.809 4.19824 14.1354C3.52463 13.4618 2.98991 12.6701 2.59408 11.7604C2.19824 10.8507 2.00033 9.875 2.00033 8.83333C2.00033 7.79167 2.19824 6.81597 2.59408 5.90625C2.98991 4.99653 3.52463 4.20486 4.19824 3.53125C4.87185 2.85764 5.66352 2.32292 6.57324 1.92708C7.48296 1.53125 8.45866 1.33333 9.50033 1.33333C10.542 1.33333 11.5177 1.53125 12.4274 1.92708C13.3371 2.32292 14.1288 2.85764 14.8024 3.53125C15.476 4.20486 16.0107 4.99653 16.4066 5.90625C16.8024 6.81597 17.0003 7.79167 17.0003 8.83333C17.0003 9.875 16.8024 10.8507 16.4066 11.7604C16.0107 12.6701 15.476 13.4618 14.8024 14.1354C14.1288 14.809 13.3371 15.3438 12.4274 15.7396C11.5177 16.1354 10.542 16.3333 9.50033 16.3333ZM1.20866 4.08333C1.05588 3.93056 0.979492 3.73611 0.979492 3.5C0.979492 3.26389 1.05588 3.06944 1.20866 2.91667L3.58366 0.541667C3.73644 0.388889 3.93088 0.3125 4.16699 0.3125C4.4031 0.3125 4.59755 0.388889 4.75033 0.541667C4.9031 0.694444 4.97949 0.888889 4.97949 1.125C4.97949 1.36111 4.9031 1.55556 4.75033 1.70833L2.37533 4.08333C2.22255 4.23611 2.0281 4.3125 1.79199 4.3125C1.55588 4.3125 1.36144 4.23611 1.20866 4.08333ZM17.792 4.08333C17.6392 4.23611 17.4448 4.3125 17.2087 4.3125C16.9725 4.3125 16.7781 4.23611 16.6253 4.08333L14.2503 1.70833C14.0975 1.55556 14.0212 1.36111 14.0212 1.125C14.0212 0.888889 14.0975 0.694444 14.2503 0.541667C14.4031 0.388889 14.5975 0.3125 14.8337 0.3125C15.0698 0.3125 15.2642 0.388889 15.417 0.541667L17.792 2.91667C17.9448 3.06944 18.0212 3.26389 18.0212 3.5C18.0212 3.73611 17.9448 3.93056 17.792 4.08333ZM9.50033 14.6667C11.1253 14.6667 12.5038 14.1007 13.6357 12.9688C14.7677 11.8368 15.3337 10.4583 15.3337 8.83333C15.3337 7.20833 14.7677 5.82986 13.6357 4.69792C12.5038 3.56597 11.1253 3 9.50033 3C7.87533 3 6.49685 3.56597 5.36491 4.69792C4.23296 5.82986 3.66699 7.20833 3.66699 8.83333C3.66699 10.4583 4.23296 11.8368 5.36491 12.9688C6.49685 14.1007 7.87533 14.6667 9.50033 14.6667Z" fill="#1C1B1F"/>
</svg>
