<svg width="18" height="18" viewBox="0 0 18 18" fill="none" xmlns="http://www.w3.org/2000/svg">
<path d="M7.16699 17.125C5.26421 16.6944 3.70519 15.7222 2.48991 14.2083C1.27463 12.6944 0.666992 10.9583 0.666992 9C0.666992 7.04166 1.27463 5.30555 2.48991 3.79166C3.70519 2.27778 5.26421 1.30555 7.16699 0.874998C7.43088 0.805553 7.66352 0.854164 7.86491 1.02083C8.0663 1.1875 8.16699 1.40972 8.16699 1.6875C8.16699 1.88194 8.11144 2.05555 8.00033 2.20833C7.88921 2.36111 7.73644 2.45833 7.54199 2.5C6.01421 2.84722 4.76421 3.625 3.79199 4.83333C2.81977 6.04167 2.33366 7.43055 2.33366 9C2.33366 10.5694 2.81977 11.9583 3.79199 13.1667C4.76421 14.375 6.01421 15.1528 7.54199 15.5C7.73644 15.5417 7.88921 15.6389 8.00033 15.7917C8.11144 15.9444 8.16699 16.1181 8.16699 16.3125C8.16699 16.5903 8.0663 16.8125 7.86491 16.9792C7.66352 17.1458 7.43088 17.1944 7.16699 17.125ZM10.8337 17.125C10.5698 17.1944 10.3371 17.1458 10.1357 16.9792C9.93435 16.8125 9.83366 16.5903 9.83366 16.3125C9.83366 16.1181 9.88921 15.9444 10.0003 15.7917C10.1114 15.6389 10.2642 15.5417 10.4587 15.5C10.8337 15.4167 11.1982 15.3021 11.5524 15.1562C11.9066 15.0104 12.2434 14.8333 12.5628 14.625C12.7156 14.5139 12.8857 14.4722 13.0732 14.5C13.2607 14.5278 13.4239 14.6111 13.5628 14.75C13.7573 14.9444 13.8406 15.1701 13.8128 15.4271C13.785 15.684 13.66 15.8889 13.4378 16.0417C13.035 16.2917 12.6149 16.5069 12.1774 16.6875C11.7399 16.8681 11.292 17.0139 10.8337 17.125ZM14.7503 13.5833C14.6114 13.4444 14.5281 13.2812 14.5003 13.0937C14.4725 12.9062 14.5142 12.7361 14.6253 12.5833C14.8337 12.2639 15.0107 11.9236 15.1566 11.5625C15.3024 11.2014 15.417 10.8333 15.5003 10.4583C15.542 10.2639 15.6392 10.1146 15.792 10.0104C15.9448 9.90625 16.1184 9.85417 16.3128 9.85417C16.5906 9.85417 16.8128 9.95486 16.9795 10.1562C17.1462 10.3576 17.1948 10.5903 17.1253 10.8542C17.0142 11.3125 16.8684 11.7604 16.6878 12.1979C16.5073 12.6354 16.292 13.0556 16.042 13.4583C15.8892 13.6806 15.6844 13.8056 15.4274 13.8333C15.1705 13.8611 14.9448 13.7778 14.7503 13.5833ZM16.3128 8.16667C16.1184 8.16667 15.9448 8.11111 15.792 8C15.6392 7.88889 15.542 7.73611 15.5003 7.54167C15.417 7.16667 15.3024 6.80208 15.1566 6.44792C15.0107 6.09375 14.8337 5.75694 14.6253 5.4375C14.5142 5.27083 14.4725 5.09375 14.5003 4.90625C14.5281 4.71875 14.6114 4.55555 14.7503 4.41666C14.9448 4.22222 15.1705 4.13889 15.4274 4.16666C15.6844 4.19444 15.8892 4.32639 16.042 4.5625C16.292 4.96528 16.5073 5.38541 16.6878 5.82291C16.8684 6.26042 17.0142 6.70833 17.1253 7.16667C17.1948 7.43055 17.1462 7.66319 16.9795 7.86458C16.8128 8.06597 16.5906 8.16667 16.3128 8.16667ZM12.5628 3.375C12.2434 3.16666 11.9066 2.98958 11.5524 2.84375C11.1982 2.69791 10.8337 2.58333 10.4587 2.5C10.2642 2.45833 10.1114 2.36111 10.0003 2.20833C9.88921 2.05555 9.83366 1.88194 9.83366 1.6875C9.83366 1.40972 9.93435 1.1875 10.1357 1.02083C10.3371 0.854164 10.5698 0.805553 10.8337 0.874998C11.292 0.986109 11.7399 1.13194 12.1774 1.3125C12.6149 1.49305 13.035 1.70833 13.4378 1.95833C13.6739 2.11111 13.8059 2.31597 13.8337 2.57291C13.8614 2.82986 13.7781 3.05555 13.5837 3.25C13.4448 3.38889 13.2816 3.47222 13.0941 3.5C12.9066 3.52778 12.7295 3.48611 12.5628 3.375ZM8.97949 13.1667C8.74338 13.1667 8.54546 13.0868 8.38574 12.9271C8.22602 12.7674 8.14616 12.5694 8.14616 12.3333V8.0625L6.58366 9.64583C6.41699 9.8125 6.21908 9.89583 5.98991 9.89583C5.76074 9.89583 5.56283 9.8125 5.39616 9.64583C5.22949 9.47917 5.14269 9.28125 5.13574 9.05208C5.1288 8.82292 5.20866 8.625 5.37533 8.45833L8.39616 5.41666C8.54894 5.26389 8.74338 5.1875 8.97949 5.1875C9.2156 5.1875 9.41005 5.26389 9.56283 5.41666L12.542 8.39583C12.7087 8.5625 12.7955 8.76389 12.8024 9C12.8094 9.23611 12.7295 9.4375 12.5628 9.60417C12.3962 9.77083 12.1948 9.85417 11.9587 9.85417C11.7225 9.85417 11.5212 9.77083 11.3545 9.60417L9.81283 8.0625V12.3333C9.81283 12.5694 9.73296 12.7674 9.57324 12.9271C9.41352 13.0868 9.2156 13.1667 8.97949 13.1667Z" fill="#344054"/>
</svg>
