<svg width="10" height="16" viewBox="0 0 10 16" fill="none" xmlns="http://www.w3.org/2000/svg">
<path d="M7.06243 8.00001L0.937429 1.87501C0.729096 1.66668 0.628401 1.42015 0.635346 1.13543C0.64229 0.850705 0.749929 0.604177 0.958262 0.395844C1.1666 0.18751 1.41312 0.0833435 1.69785 0.0833435C1.98257 0.0833435 2.2291 0.18751 2.43743 0.395844L8.83326 6.81251C8.99993 6.97918 9.12493 7.16668 9.20826 7.37501C9.2916 7.58334 9.33326 7.79168 9.33326 8.00001C9.33326 8.20834 9.2916 8.41668 9.20826 8.62501C9.12493 8.83334 8.99993 9.02084 8.83326 9.18751L2.4166 15.6042C2.20826 15.8125 1.96521 15.9132 1.68743 15.9063C1.40965 15.8993 1.1666 15.7917 0.958262 15.5833C0.749929 15.375 0.645762 15.1285 0.645762 14.8438C0.645762 14.559 0.749929 14.3125 0.958262 14.1042L7.06243 8.00001Z" fill="#D0D5DD"/>
</svg>
