<svg width="38" height="24" viewBox="0 0 38 24" fill="none" xmlns="http://www.w3.org/2000/svg">
<path d="M3.99999 23.6666C3.08332 23.6666 2.2986 23.3403 1.64582 22.6875C0.993045 22.0347 0.666656 21.25 0.666656 20.3333V3.66665C0.666656 2.74998 0.993045 1.96526 1.64582 1.31248C2.2986 0.659702 3.08332 0.333313 3.99999 0.333313H20.6667C21.5833 0.333313 22.368 0.659702 23.0208 1.31248C23.6736 1.96526 24 2.74998 24 3.66665V20.3333C24 21.25 23.6736 22.0347 23.0208 22.6875C22.368 23.3403 21.5833 23.6666 20.6667 23.6666H3.99999ZM5.66666 17H19L14.6667 11.1666L11.5 15.3333L9.16666 12.25L5.66666 17ZM27.3333 23.6666V0.333313H30.6667V23.6666H27.3333ZM34 23.6666V0.333313H37.3333V23.6666H34Z" fill="#344054"/>
</svg>
