<svg width="22" height="16" viewBox="0 0 22 16" fill="none" xmlns="http://www.w3.org/2000/svg">
<path d="M10 8.85L9.1 9.725C8.91667 9.90833 8.6875 10 8.4125 10C8.1375 10 7.9 9.9 7.7 9.7C7.51667 9.51667 7.425 9.28333 7.425 9C7.425 8.71667 7.51667 8.48333 7.7 8.3L10.3 5.7C10.5 5.5 10.7333 5.4 11 5.4C11.2667 5.4 11.5 5.5 11.7 5.7L14.3 8.3C14.4833 8.48333 14.5792 8.7125 14.5875 8.9875C14.5958 9.2625 14.5 9.5 14.3 9.7C14.1167 9.88333 13.8875 9.97917 13.6125 9.9875C13.3375 9.99583 13.1 9.90833 12.9 9.725L12 8.85V14H17.5C18.2 14 18.7917 13.7583 19.275 13.275C19.7583 12.7917 20 12.2 20 11.5C20 10.8 19.7583 10.2083 19.275 9.725C18.7917 9.24167 18.2 9 17.5 9H16V7C16 5.61667 15.5125 4.4375 14.5375 3.4625C13.5625 2.4875 12.3833 2 11 2C9.61667 2 8.4375 2.4875 7.4625 3.4625C6.4875 4.4375 6 5.61667 6 7H5.5C4.53333 7 3.70833 7.34167 3.025 8.025C2.34167 8.70833 2 9.53333 2 10.5C2 11.4667 2.34167 12.2917 3.025 12.975C3.70833 13.6583 4.53333 14 5.5 14H7C7.28333 14 7.52083 14.0958 7.7125 14.2875C7.90417 14.4792 8 14.7167 8 15C8 15.2833 7.90417 15.5208 7.7125 15.7125C7.52083 15.9042 7.28333 16 7 16H5.5C3.98333 16 2.6875 15.475 1.6125 14.425C0.5375 13.375 0 12.0917 0 10.575C0 9.275 0.391667 8.11667 1.175 7.1C1.95833 6.08333 2.98333 5.43333 4.25 5.15C4.66667 3.61667 5.5 2.375 6.75 1.425C8 0.475 9.41667 0 11 0C12.95 0 14.6042 0.679167 15.9625 2.0375C17.3208 3.39583 18 5.05 18 7C19.15 7.13333 20.1042 7.62917 20.8625 8.4875C21.6208 9.34583 22 10.35 22 11.5C22 12.75 21.5625 13.8125 20.6875 14.6875C19.8125 15.5625 18.75 16 17.5 16H12C11.45 16 10.9792 15.8042 10.5875 15.4125C10.1958 15.0208 10 14.55 10 14V8.85Z" fill="#1C1B1F"/>
</svg>
