<svg width="40" height="40" viewBox="0 0 40 40" fill="none" xmlns="http://www.w3.org/2000/svg">
<g clip-path="url(#clip0_421_8390)">
<path d="M26.9837 18.8773C23.958 18.4396 21.5603 16.0419 21.1226 13.0162C21.0465 12.4453 20.5707 12.0266 19.9998 12.0266C19.4289 12.0266 18.9532 12.4453 18.8771 13.0162C18.4394 16.0419 16.0416 18.4396 13.0159 18.8773C12.445 18.9534 12.0264 19.4292 12.0264 20.0001C12.0264 20.571 12.445 21.0467 13.0159 21.1228C16.0416 21.5605 18.4584 23.9582 18.8771 26.984C18.9532 27.5549 19.4289 27.9735 19.9998 27.9735C20.5707 27.9735 21.0465 27.5549 21.1226 26.984C21.5603 23.9582 23.958 21.5605 26.9837 21.1228C27.5546 21.0467 27.9733 20.571 27.9733 20.0001C27.9733 19.4292 27.5546 18.9534 26.9837 18.8773Z" fill="white"/>
<path d="M6.62184 11.608V32.4836C6.62184 32.9213 6.20318 33.2448 5.78453 33.1306L0.494267 31.6844C0.132702 31.5892 -0.076625 31.2276 0.0185236 30.8661L5.32782 11.4367C5.53714 10.6946 6.64087 10.8278 6.64087 11.608H6.62184Z" fill="white"/>
<path d="M11.608 33.3589H32.4836C32.9213 33.3589 33.2448 33.7775 33.1306 34.1962L31.6843 39.4865C31.5892 39.848 31.2276 40.0573 30.8661 39.9622L11.4177 34.6719C10.6755 34.4626 10.8087 33.3589 11.589 33.3589H11.608Z" fill="white"/>
<path d="M9.13334 0.0185236L28.5627 5.30878C29.3048 5.51811 29.1716 6.62184 28.3914 6.62184H7.49679C7.0591 6.62184 6.7356 6.20318 6.84977 5.78453L8.29603 0.494267C8.39118 0.132702 8.75275 -0.076625 9.11431 0.0185236H9.13334Z" fill="white"/>
<path d="M39.9807 9.11504L34.6714 28.5634C34.4621 29.3056 33.3584 29.1724 33.3584 28.3921V7.49752C33.3584 7.05983 33.777 6.73633 34.1957 6.85051L39.505 8.29677C39.8666 8.39191 40.0759 8.75348 39.9807 9.11504Z" fill="white"/>
</g>
<defs>
<clipPath id="clip0_421_8390">
<rect width="40.0005" height="40.0005" fill="white" transform="translate(-0.000488281 -0.000244141)"/>
</clipPath>
</defs>
</svg>
