<svg width="22" height="21" viewBox="0 0 22 21" fill="none" xmlns="http://www.w3.org/2000/svg">
<path d="M3.29999 17.7001L10.35 15.2001L5.79999 10.6501L3.29999 17.7001ZM21.025 6.02505C20.875 6.17505 20.7 6.25005 20.5 6.25005C20.3 6.25005 20.125 6.17505 19.975 6.02505L19.9 5.95005C19.6667 5.71672 19.375 5.60005 19.025 5.60005C18.675 5.60005 18.3833 5.71672 18.15 5.95005L13.075 11.0251C12.925 11.175 12.75 11.25 12.55 11.25C12.35 11.25 12.175 11.175 12.025 11.0251C11.875 10.8751 11.8 10.7 11.8 10.5C11.8 10.3 11.875 10.125 12.025 9.97505L17.1 4.90005C17.6333 4.36672 18.275 4.10005 19.025 4.10005C19.775 4.10005 20.4167 4.36672 20.95 4.90005L21.025 4.97505C21.175 5.12505 21.25 5.30005 21.25 5.50005C21.25 5.70005 21.175 5.87505 21.025 6.02505ZM7.975 3.02505C8.125 2.87505 8.29999 2.80005 8.49999 2.80005C8.7 2.80005 8.875 2.87505 9.02499 3.02505L9.14999 3.15005C9.68333 3.68338 9.95 4.31672 9.95 5.05005C9.95 5.78338 9.68333 6.41672 9.14999 6.95005L9.075 7.02505C8.925 7.17505 8.75 7.25005 8.54999 7.25005C8.35 7.25005 8.17499 7.17505 8.02499 7.02505C7.87499 6.87505 7.79999 6.70005 7.79999 6.50005C7.79999 6.30005 7.87499 6.12505 8.02499 5.97505L8.1 5.90005C8.33333 5.66672 8.45 5.38338 8.45 5.05005C8.45 4.71672 8.33333 4.43338 8.1 4.20005L7.975 4.07505C7.825 3.92505 7.74999 3.75005 7.74999 3.55005C7.74999 3.35005 7.825 3.17505 7.975 3.02505ZM12.025 1.02505C12.175 0.875049 12.35 0.800049 12.55 0.800049C12.75 0.800049 12.925 0.875049 13.075 1.02505L14.15 2.10005C14.6833 2.63338 14.95 3.27505 14.95 4.02505C14.95 4.77505 14.6833 5.41672 14.15 5.95005L11.075 9.02505C10.925 9.17505 10.75 9.25005 10.55 9.25005C10.35 9.25005 10.175 9.17505 10.025 9.02505C9.875 8.87505 9.8 8.70005 9.8 8.50005C9.8 8.30005 9.875 8.12505 10.025 7.97505L13.1 4.90005C13.3333 4.66672 13.45 4.37505 13.45 4.02505C13.45 3.67505 13.3333 3.38338 13.1 3.15005L12.025 2.07505C11.875 1.92505 11.8 1.75005 11.8 1.55005C11.8 1.35005 11.875 1.17505 12.025 1.02505ZM20.025 13.0251C19.875 13.175 19.7 13.25 19.5 13.25C19.3 13.25 19.125 13.175 18.975 13.0251L17.9 11.95C17.6667 11.7167 17.375 11.6 17.025 11.6C16.675 11.6 16.3833 11.7167 16.15 11.95L15.075 13.0251C14.925 13.175 14.75 13.25 14.55 13.25C14.35 13.25 14.175 13.175 14.025 13.0251C13.875 12.8751 13.8 12.7 13.8 12.5C13.8 12.3 13.875 12.125 14.025 11.975L15.1 10.9001C15.6333 10.3667 16.275 10.1 17.025 10.1C17.775 10.1 18.4167 10.3667 18.95 10.9001L20.025 11.975C20.175 12.125 20.25 12.3 20.25 12.5C20.25 12.7 20.175 12.8751 20.025 13.0251ZM0.699994 19L4.47499 8.50005C4.55833 8.28338 4.68749 8.11672 4.86249 8.00005C5.0375 7.88338 5.225 7.82505 5.42499 7.82505C5.55833 7.82505 5.68333 7.85005 5.79999 7.90005C5.91666 7.95005 6.02499 8.02505 6.12499 8.12505L12.875 14.8751C12.975 14.9751 13.05 15.0834 13.1 15.2001C13.15 15.3167 13.175 15.4417 13.175 15.5751C13.175 15.7751 13.1167 15.9626 13 16.1376C12.8833 16.3126 12.7167 16.4417 12.5 16.5251L1.99999 20.3001C1.79999 20.3834 1.60833 20.3959 1.42499 20.3376C1.24166 20.2792 1.08333 20.1834 0.949994 20.0501C0.816661 19.9167 0.720828 19.7584 0.662494 19.5751C0.604161 19.3917 0.616661 19.2001 0.699994 19Z" fill="#344054"/>
</svg>
