<svg width="22" height="16" viewBox="0 0 22 16" fill="none" xmlns="http://www.w3.org/2000/svg">
<path d="M5.25 10H10.825C11.1583 10 11.4083 9.89583 11.575 9.6875C11.7417 9.47917 11.825 9.25 11.825 9C11.825 8.75 11.7417 8.52083 11.575 8.3125C11.4083 8.10417 11.1583 8 10.825 8H5.25C4.96667 8 4.72917 8.09583 4.5375 8.2875C4.34583 8.47917 4.25 8.71667 4.25 9C4.25 9.28333 4.34583 9.52083 4.5375 9.7125C4.72917 9.90417 4.96667 10 5.25 10ZM5.25 6H9.25C9.53333 6 9.77083 5.90417 9.9625 5.7125C10.1542 5.52083 10.25 5.28333 10.25 5C10.25 4.71667 10.1542 4.47917 9.9625 4.2875C9.77083 4.09583 9.53333 4 9.25 4H5.25C4.96667 4 4.72917 4.09583 4.5375 4.2875C4.34583 4.47917 4.25 4.71667 4.25 5C4.25 5.28333 4.34583 5.52083 4.5375 5.7125C4.72917 5.90417 4.96667 6 5.25 6ZM2.25 14C1.7 14 1.22917 13.8042 0.8375 13.4125C0.445833 13.0208 0.25 12.55 0.25 12V2C0.25 1.45 0.445833 0.979167 0.8375 0.5875C1.22917 0.195833 1.7 0 2.25 0H18.25C18.8 0 19.2708 0.195833 19.6625 0.5875C20.0542 0.979167 20.25 1.45 20.25 2V3.5C20.25 3.78333 20.1542 4.02083 19.9625 4.2125C19.7708 4.40417 19.5333 4.5 19.25 4.5C18.9667 4.5 18.7292 4.40417 18.5375 4.2125C18.3458 4.02083 18.25 3.78333 18.25 3.5V2H2.25V12H8.25C8.53333 12 8.77083 12.0958 8.9625 12.2875C9.15417 12.4792 9.25 12.7167 9.25 13C9.25 13.2833 9.15417 13.5208 8.9625 13.7125C8.77083 13.9042 8.53333 14 8.25 14H2.25ZM21.15 7.3C21.2333 7.38333 21.275 7.475 21.275 7.575C21.275 7.675 21.2333 7.76667 21.15 7.85L20.25 8.75L18.5 7L19.4 6.1C19.4833 6.01667 19.575 5.975 19.675 5.975C19.775 5.975 19.8667 6.01667 19.95 6.1L21.15 7.3ZM19.65 9.35L13.3 15.7C13.2 15.8 13.0875 15.875 12.9625 15.925C12.8375 15.975 12.7083 16 12.575 16H11.75C11.6167 16 11.5 15.95 11.4 15.85C11.3 15.75 11.25 15.6333 11.25 15.5V14.675C11.25 14.5417 11.275 14.4125 11.325 14.2875C11.375 14.1625 11.45 14.05 11.55 13.95L17.9 7.6L19.65 9.35Z" fill="#1C1B1F"/>
</svg>
