<svg width="35" height="34" viewBox="0 0 35 34" fill="none" xmlns="http://www.w3.org/2000/svg">
<path d="M15.1663 20.0002L11.583 16.4168C11.2775 16.1113 10.8886 15.9585 10.4163 15.9585C9.94412 15.9585 9.55523 16.1113 9.24967 16.4168C8.94412 16.7224 8.79134 17.1113 8.79134 17.5835C8.79134 18.0557 8.94412 18.4446 9.24967 18.7502L13.9997 23.5002C14.333 23.8335 14.7219 24.0002 15.1663 24.0002C15.6108 24.0002 15.9997 23.8335 16.333 23.5002L25.7497 14.0835C26.0552 13.7779 26.208 13.3891 26.208 12.9168C26.208 12.4446 26.0552 12.0557 25.7497 11.7502C25.4441 11.4446 25.0552 11.2918 24.583 11.2918C24.1108 11.2918 23.7219 11.4446 23.4163 11.7502L15.1663 20.0002ZM17.4997 33.6668C15.1941 33.6668 13.0275 33.2293 10.9997 32.3543C8.9719 31.4793 7.20801 30.2918 5.70801 28.7918C4.20801 27.2918 3.02051 25.5279 2.14551 23.5002C1.27051 21.4724 0.833008 19.3057 0.833008 17.0002C0.833008 14.6946 1.27051 12.5279 2.14551 10.5002C3.02051 8.47238 4.20801 6.7085 5.70801 5.2085C7.20801 3.7085 8.9719 2.521 10.9997 1.646C13.0275 0.770996 15.1941 0.333496 17.4997 0.333496C19.8052 0.333496 21.9719 0.770996 23.9997 1.646C26.0275 2.521 27.7913 3.7085 29.2913 5.2085C30.7913 6.7085 31.9788 8.47238 32.8538 10.5002C33.7288 12.5279 34.1663 14.6946 34.1663 17.0002C34.1663 19.3057 33.7288 21.4724 32.8538 23.5002C31.9788 25.5279 30.7913 27.2918 29.2913 28.7918C27.7913 30.2918 26.0275 31.4793 23.9997 32.3543C21.9719 33.2293 19.8052 33.6668 17.4997 33.6668ZM17.4997 30.3335C21.2219 30.3335 24.3747 29.0418 26.958 26.4585C29.5413 23.8752 30.833 20.7224 30.833 17.0002C30.833 13.2779 29.5413 10.1252 26.958 7.54183C24.3747 4.9585 21.2219 3.66683 17.4997 3.66683C13.7775 3.66683 10.6247 4.9585 8.04134 7.54183C5.45801 10.1252 4.16634 13.2779 4.16634 17.0002C4.16634 20.7224 5.45801 23.8752 8.04134 26.4585C10.6247 29.0418 13.7775 30.3335 17.4997 30.3335Z" fill="#359EFF"/>
</svg>
