<svg width="12" height="12" viewBox="0 0 12 12" fill="none" xmlns="http://www.w3.org/2000/svg">
<path d="M5.99967 7.16668L1.91634 11.25C1.76356 11.4028 1.56912 11.4792 1.33301 11.4792C1.0969 11.4792 0.902452 11.4028 0.749674 11.25C0.596897 11.0972 0.520508 10.9028 0.520508 10.6667C0.520508 10.4306 0.596897 10.2361 0.749674 10.0833L4.83301 6.00001L0.749674 1.91668C0.596897 1.7639 0.520508 1.56945 0.520508 1.33334C0.520508 1.09723 0.596897 0.902788 0.749674 0.75001C0.902452 0.597232 1.0969 0.520844 1.33301 0.520844C1.56912 0.520844 1.76356 0.597232 1.91634 0.75001L5.99967 4.83334L10.083 0.75001C10.2358 0.597232 10.4302 0.520844 10.6663 0.520844C10.9025 0.520844 11.0969 0.597232 11.2497 0.75001C11.4025 0.902788 11.4788 1.09723 11.4788 1.33334C11.4788 1.56945 11.4025 1.7639 11.2497 1.91668L7.16634 6.00001L11.2497 10.0833C11.4025 10.2361 11.4788 10.4306 11.4788 10.6667C11.4788 10.9028 11.4025 11.0972 11.2497 11.25C11.0969 11.4028 10.9025 11.4792 10.6663 11.4792C10.4302 11.4792 10.2358 11.4028 10.083 11.25L5.99967 7.16668Z" fill="white"/>
</svg>
