<svg width="14" height="14" viewBox="0 0 14 14" fill="none" xmlns="http://www.w3.org/2000/svg">
<path d="M6.99967 9.97918C6.88856 9.97918 6.7844 9.96181 6.68717 9.92709C6.58995 9.89237 6.49967 9.83334 6.41634 9.75001L3.41634 6.75001C3.24967 6.58334 3.16981 6.3889 3.17676 6.16668C3.1837 5.94445 3.26356 5.75001 3.41634 5.58334C3.58301 5.41668 3.78092 5.32987 4.01009 5.32293C4.23926 5.31598 4.43717 5.39584 4.60384 5.56251L6.16634 7.12501V1.16668C6.16634 0.930566 6.2462 0.732649 6.40592 0.572927C6.56565 0.413205 6.76356 0.333344 6.99967 0.333344C7.23579 0.333344 7.4337 0.413205 7.59342 0.572927C7.75315 0.732649 7.83301 0.930566 7.83301 1.16668V7.12501L9.39551 5.56251C9.56217 5.39584 9.76009 5.31598 9.98926 5.32293C10.2184 5.32987 10.4163 5.41668 10.583 5.58334C10.7358 5.75001 10.8156 5.94445 10.8226 6.16668C10.8295 6.3889 10.7497 6.58334 10.583 6.75001L7.58301 9.75001C7.49967 9.83334 7.4094 9.89237 7.31217 9.92709C7.21495 9.96181 7.11079 9.97918 6.99967 9.97918ZM1.99967 13.6667C1.54134 13.6667 1.14898 13.5035 0.822591 13.1771C0.496202 12.8507 0.333008 12.4583 0.333008 12V10.3333C0.333008 10.0972 0.412869 9.89932 0.572591 9.73959C0.732313 9.57987 0.93023 9.50001 1.16634 9.50001C1.40245 9.50001 1.60037 9.57987 1.76009 9.73959C1.91981 9.89932 1.99967 10.0972 1.99967 10.3333V12H11.9997V10.3333C11.9997 10.0972 12.0795 9.89932 12.2393 9.73959C12.399 9.57987 12.5969 9.50001 12.833 9.50001C13.0691 9.50001 13.267 9.57987 13.4268 9.73959C13.5865 9.89932 13.6663 10.0972 13.6663 10.3333V12C13.6663 12.4583 13.5031 12.8507 13.1768 13.1771C12.8504 13.5035 12.458 13.6667 11.9997 13.6667H1.99967Z" fill="#1C1B1F"/>
</svg>
