<svg width="16" height="15" viewBox="0 0 16 15" fill="none" xmlns="http://www.w3.org/2000/svg">
<path d="M1.75706 13.3333H3.00897L11.5966 5.1875L10.3447 4L1.75706 12.1458V13.3333ZM0.878531 15C0.629614 15 0.420963 14.9201 0.252578 14.7604C0.0841926 14.6007 0 14.4028 0 14.1667V12.1458C0 11.9236 0.0439266 11.7118 0.13178 11.5104C0.219633 11.309 0.344091 11.1319 0.505155 10.9792L11.5966 0.479167C11.7723 0.326389 11.9663 0.208333 12.1786 0.125C12.391 0.0416667 12.6142 0 12.8485 0C13.0828 0 13.3097 0.0416667 13.5294 0.125C13.749 0.208333 13.9394 0.333333 14.1004 0.5L15.3084 1.66667C15.4841 1.81944 15.6122 2 15.6928 2.20833C15.7733 2.41667 15.8136 2.625 15.8136 2.83333C15.8136 3.05556 15.7733 3.26736 15.6928 3.46875C15.6122 3.67014 15.4841 3.85417 15.3084 4.02083L4.23891 14.5208C4.07785 14.6736 3.89116 14.7917 3.67885 14.875C3.46654 14.9583 3.24324 15 3.00897 15H0.878531ZM10.9597 4.60417L10.3447 4L11.5966 5.1875L10.9597 4.60417Z" fill="#344054"/>
</svg>
