<svg width="35" height="34" viewBox="0 0 35 34" fill="none" xmlns="http://www.w3.org/2000/svg">
<path d="M17.5002 25.3333C17.9724 25.3333 18.3682 25.1735 18.6877 24.8541C19.0071 24.5346 19.1668 24.1388 19.1668 23.6666C19.1668 23.1944 19.0071 22.7985 18.6877 22.4791C18.3682 22.1596 17.9724 21.9999 17.5002 21.9999C17.0279 21.9999 16.6321 22.1596 16.3127 22.4791C15.9932 22.7985 15.8335 23.1944 15.8335 23.6666C15.8335 24.1388 15.9932 24.5346 16.3127 24.8541C16.6321 25.1735 17.0279 25.3333 17.5002 25.3333ZM17.5002 18.6666C17.9724 18.6666 18.3682 18.5069 18.6877 18.1874C19.0071 17.868 19.1668 17.4721 19.1668 16.9999V10.3333C19.1668 9.86103 19.0071 9.4652 18.6877 9.14575C18.3682 8.82631 17.9724 8.66658 17.5002 8.66658C17.0279 8.66658 16.6321 8.82631 16.3127 9.14575C15.9932 9.4652 15.8335 9.86103 15.8335 10.3333V16.9999C15.8335 17.4721 15.9932 17.868 16.3127 18.1874C16.6321 18.5069 17.0279 18.6666 17.5002 18.6666ZM17.5002 33.6666C15.1946 33.6666 13.0279 33.2291 11.0002 32.3541C8.97238 31.4791 7.2085 30.2916 5.7085 28.7916C4.2085 27.2916 3.021 25.5277 2.146 23.4999C1.271 21.4721 0.833496 19.3055 0.833496 16.9999C0.833496 14.6944 1.271 12.5277 2.146 10.4999C3.021 8.47214 4.2085 6.70825 5.7085 5.20825C7.2085 3.70825 8.97238 2.52075 11.0002 1.64575C13.0279 0.770752 15.1946 0.333252 17.5002 0.333252C19.8057 0.333252 21.9724 0.770752 24.0002 1.64575C26.0279 2.52075 27.7918 3.70825 29.2918 5.20825C30.7918 6.70825 31.9793 8.47214 32.8543 10.4999C33.7293 12.5277 34.1668 14.6944 34.1668 16.9999C34.1668 19.3055 33.7293 21.4721 32.8543 23.4999C31.9793 25.5277 30.7918 27.2916 29.2918 28.7916C27.7918 30.2916 26.0279 31.4791 24.0002 32.3541C21.9724 33.2291 19.8057 33.6666 17.5002 33.6666ZM17.5002 30.3333C21.2224 30.3333 24.3752 29.0416 26.9585 26.4583C29.5418 23.8749 30.8335 20.7221 30.8335 16.9999C30.8335 13.2777 29.5418 10.1249 26.9585 7.54159C24.3752 4.95825 21.2224 3.66659 17.5002 3.66659C13.7779 3.66659 10.6252 4.95825 8.04183 7.54159C5.4585 10.1249 4.16683 13.2777 4.16683 16.9999C4.16683 20.7221 5.4585 23.8749 8.04183 26.4583C10.6252 29.0416 13.7779 30.3333 17.5002 30.3333Z" fill="#FF6B6B"/>
</svg>
