<svg width="28" height="35" viewBox="0 0 28 35" fill="none" xmlns="http://www.w3.org/2000/svg">
<path d="M19.8333 17C19.3611 17 18.9653 16.8403 18.6458 16.5208C18.3264 16.2014 18.1667 15.8055 18.1667 15.3333C18.1667 14.8611 18.3264 14.4653 18.6458 14.1458C18.9653 13.8264 19.3611 13.6666 19.8333 13.6666C20.3055 13.6666 20.7014 13.8264 21.0208 14.1458C21.3403 14.4653 21.5 14.8611 21.5 15.3333C21.5 15.8055 21.3403 16.2014 21.0208 16.5208C20.7014 16.8403 20.3055 17 19.8333 17ZM11.5 17C11.0278 17 10.6319 16.8403 10.3125 16.5208C9.99304 16.2014 9.83332 15.8055 9.83332 15.3333C9.83332 14.8611 9.99304 14.4653 10.3125 14.1458C10.6319 13.8264 11.0278 13.6666 11.5 13.6666C11.9722 13.6666 12.368 13.8264 12.6875 14.1458C13.0069 14.4653 13.1667 14.8611 13.1667 15.3333C13.1667 15.8055 13.0069 16.2014 12.6875 16.5208C12.368 16.8403 11.9722 17 11.5 17ZM27.3333 13.6666C27.3333 15.6666 26.9375 17.5069 26.1458 19.1875C25.3542 20.868 24.2778 22.3333 22.9167 23.5833C22.4722 23.9722 22.0278 24.1389 21.5833 24.0833C21.1389 24.0278 20.7639 23.8472 20.4583 23.5416C20.1528 23.2361 19.993 22.8611 19.9792 22.4166C19.9653 21.9722 20.1528 21.5833 20.5417 21.25C21.5972 20.3333 22.4375 19.2222 23.0625 17.9166C23.6875 16.6111 24 15.1944 24 13.6666C24 13.3611 23.9861 13.0694 23.9583 12.7916C23.9305 12.5139 23.8889 12.2222 23.8333 11.9166C21.7778 12.1389 19.7917 11.9097 17.875 11.2291C15.9583 10.5486 14.2778 9.4722 12.8333 7.99998C11.7778 9.44442 10.4792 10.6389 8.93749 11.5833C7.39582 12.5278 5.74999 13.1528 3.99999 13.4583C3.94443 15.0139 4.2361 16.4583 4.87499 17.7916C5.51388 19.125 6.37499 20.2639 7.45832 21.2083C7.84721 21.5694 8.03471 21.9722 8.02082 22.4166C8.00693 22.8611 7.84721 23.2361 7.54166 23.5416C7.2361 23.8472 6.8611 24.0278 6.41666 24.0833C5.97221 24.1389 5.52777 23.9722 5.08332 23.5833C3.72221 22.3333 2.64582 20.868 1.85416 19.1875C1.06249 17.5069 0.666656 15.6666 0.666656 13.6666C0.666656 9.94442 1.95832 6.79165 4.54166 4.20831C7.12499 1.62498 10.2778 0.333313 14 0.333313C17.7222 0.333313 20.875 1.62498 23.4583 4.20831C26.0417 6.79165 27.3333 9.94442 27.3333 13.6666ZM14.2917 30.3333H8.99999C8.52777 30.3333 8.13193 30.1736 7.81249 29.8541C7.49304 29.5347 7.33332 29.1389 7.33332 28.6666C7.33332 28.1944 7.49304 27.7986 7.81249 27.4791C8.13193 27.1597 8.52777 27 8.99999 27H14.2917L12.8333 25.5416C12.5278 25.2083 12.368 24.8125 12.3542 24.3541C12.3403 23.8958 12.5 23.5 12.8333 23.1666C13.1667 22.8333 13.5555 22.6666 14 22.6666C14.4444 22.6666 14.8333 22.8333 15.1667 23.1666L19.5 27.5C19.8333 27.8333 20 28.2222 20 28.6666C20 29.1111 19.8333 29.5 19.5 29.8333L15.1667 34.1666C14.8333 34.5 14.4444 34.6666 14 34.6666C13.5555 34.6666 13.1667 34.5 12.8333 34.1666C12.5 33.8333 12.3403 33.4375 12.3542 32.9791C12.368 32.5208 12.5278 32.125 12.8333 31.7916L14.2917 30.3333Z" fill="#344054"/>
</svg>
