<svg width="16" height="20" viewBox="0 0 16 20" fill="none" xmlns="http://www.w3.org/2000/svg">
<path d="M8 17C9.11667 17 10.0625 16.6083 10.8375 15.825C11.6125 15.0417 12 14.1 12 13V10C12 9.71667 11.9042 9.47917 11.7125 9.2875C11.5208 9.09583 11.2833 9 11 9C10.7167 9 10.4792 9.09583 10.2875 9.2875C10.0958 9.47917 10 9.71667 10 10V13C10 13.55 9.80833 14.0208 9.425 14.4125C9.04167 14.8042 8.56667 15 8 15C7.45 15 6.97917 14.8042 6.5875 14.4125C6.19583 14.0208 6 13.55 6 13V7.5C6 7.35 6.05 7.22917 6.15 7.1375C6.25 7.04583 6.36667 7 6.5 7C6.65 7 6.77083 7.04583 6.8625 7.1375C6.95417 7.22917 7 7.35 7 7.5V12C7 12.2833 7.09583 12.5208 7.2875 12.7125C7.47917 12.9042 7.71667 13 8 13C8.28333 13 8.52083 12.9042 8.7125 12.7125C8.90417 12.5208 9 12.2833 9 12V7.5C9 6.8 8.75833 6.20833 8.275 5.725C7.79167 5.24167 7.2 5 6.5 5C5.8 5 5.20833 5.24167 4.725 5.725C4.24167 6.20833 4 6.8 4 7.5V13C4 14.1 4.39167 15.0417 5.175 15.825C5.95833 16.6083 6.9 17 8 17ZM2 20C1.45 20 0.979167 19.8042 0.5875 19.4125C0.195833 19.0208 0 18.55 0 18V2C0 1.45 0.195833 0.979167 0.5875 0.5875C0.979167 0.195833 1.45 0 2 0H11L16 5V18C16 18.55 15.8042 19.0208 15.4125 19.4125C15.0208 19.8042 14.55 20 14 20H2ZM2 18H14V6H11C10.7167 6 10.4792 5.90417 10.2875 5.7125C10.0958 5.52083 10 5.28333 10 5V2H2V18Z" fill="#344054"/>
</svg>
