<svg width="14" height="14" viewBox="0 0 14 14" fill="none" xmlns="http://www.w3.org/2000/svg">
<path d="M6.1669 13.6667C5.93079 13.6667 5.73287 13.5868 5.57315 13.4271C5.41342 13.2674 5.33356 13.0695 5.33356 12.8333V7.83334L0.50023 1.66668C0.291896 1.3889 0.260646 1.09723 0.40648 0.791677C0.552313 0.486121 0.805785 0.333344 1.1669 0.333344H12.8336C13.1947 0.333344 13.4481 0.486121 13.594 0.791677C13.7398 1.09723 13.7086 1.3889 13.5002 1.66668L8.6669 7.83334V12.8333C8.6669 13.0695 8.58704 13.2674 8.42731 13.4271C8.26759 13.5868 8.06967 13.6667 7.83356 13.6667H6.1669ZM7.00023 7.25001L11.1252 2.00001H2.87523L7.00023 7.25001Z" fill="#1C1B1F"/>
</svg>
