<svg width="19" height="18" viewBox="0 0 19 18" fill="none" xmlns="http://www.w3.org/2000/svg">
<path d="M2.25 18C1.7 18 1.22917 17.8042 0.8375 17.4125C0.445833 17.0208 0.25 16.55 0.25 16V2C0.25 1.45 0.445833 0.979167 0.8375 0.5875C1.22917 0.195833 1.7 0 2.25 0H16.25C16.8 0 17.2708 0.195833 17.6625 0.5875C18.0542 0.979167 18.25 1.45 18.25 2V16C18.25 16.55 18.0542 17.0208 17.6625 17.4125C17.2708 17.8042 16.8 18 16.25 18H2.25ZM2.25 16H16.25V2H2.25V16ZM4.25 14H14.25C14.45 14 14.6 13.9083 14.7 13.725C14.8 13.5417 14.7833 13.3667 14.65 13.2L11.9 9.525C11.8 9.39167 11.6667 9.325 11.5 9.325C11.3333 9.325 11.2 9.39167 11.1 9.525L8.5 13L6.65 10.525C6.55 10.3917 6.41667 10.325 6.25 10.325C6.08333 10.325 5.95 10.3917 5.85 10.525L3.85 13.2C3.71667 13.3667 3.7 13.5417 3.8 13.725C3.9 13.9083 4.05 14 4.25 14ZM5.75 7C6.16667 7 6.52083 6.85417 6.8125 6.5625C7.10417 6.27083 7.25 5.91667 7.25 5.5C7.25 5.08333 7.10417 4.72917 6.8125 4.4375C6.52083 4.14583 6.16667 4 5.75 4C5.33333 4 4.97917 4.14583 4.6875 4.4375C4.39583 4.72917 4.25 5.08333 4.25 5.5C4.25 5.91667 4.39583 6.27083 4.6875 6.5625C4.97917 6.85417 5.33333 7 5.75 7Z" fill="#1C1B1F"/>
</svg>
