<svg width="16" height="16" viewBox="0 0 16 16" fill="none" xmlns="http://www.w3.org/2000/svg">
<path d="M2.16667 15.5C1.70833 15.5 1.31597 15.3368 0.989583 15.0104C0.663194 14.684 0.5 14.2917 0.5 13.8333V2.16667C0.5 1.70833 0.663194 1.31597 0.989583 0.989583C1.31597 0.663194 1.70833 0.5 2.16667 0.5H13.8333C14.2917 0.5 14.684 0.663194 15.0104 0.989583C15.3368 1.31597 15.5 1.70833 15.5 2.16667V13.8333C15.5 14.2917 15.3368 14.684 15.0104 15.0104C14.684 15.3368 14.2917 15.5 13.8333 15.5H2.16667ZM2.16667 13.8333H4.9375V11.0625H2.16667V13.8333ZM6.60417 13.8333H9.39583V11.0625H6.60417V13.8333ZM11.0625 13.8333H13.8333V11.0625H11.0625V13.8333ZM2.16667 9.39583H4.9375V6.60417H2.16667V9.39583ZM6.60417 9.39583H9.39583V6.60417H6.60417V9.39583ZM11.0625 9.39583H13.8333V6.60417H11.0625V9.39583ZM2.16667 4.9375H4.9375V2.16667H2.16667V4.9375ZM6.60417 4.9375H9.39583V2.16667H6.60417V4.9375ZM11.0625 4.9375H13.8333V2.16667H11.0625V4.9375Z" fill="#1C1B1F"/>
</svg>
