<svg width="16" height="16" viewBox="0 0 16 16" fill="none" xmlns="http://www.w3.org/2000/svg">
<path d="M2.16667 7.16667C1.70833 7.16667 1.31597 7.00347 0.989583 6.67708C0.663194 6.35069 0.5 5.95833 0.5 5.5V2.16667C0.5 1.70833 0.663194 1.31597 0.989583 0.989583C1.31597 0.663194 1.70833 0.5 2.16667 0.5H5.5C5.95833 0.5 6.35069 0.663194 6.67708 0.989583C7.00347 1.31597 7.16667 1.70833 7.16667 2.16667V5.5C7.16667 5.95833 7.00347 6.35069 6.67708 6.67708C6.35069 7.00347 5.95833 7.16667 5.5 7.16667H2.16667ZM2.16667 15.5C1.70833 15.5 1.31597 15.3368 0.989583 15.0104C0.663194 14.684 0.5 14.2917 0.5 13.8333V10.5C0.5 10.0417 0.663194 9.64931 0.989583 9.32292C1.31597 8.99653 1.70833 8.83333 2.16667 8.83333H5.5C5.95833 8.83333 6.35069 8.99653 6.67708 9.32292C7.00347 9.64931 7.16667 10.0417 7.16667 10.5V13.8333C7.16667 14.2917 7.00347 14.684 6.67708 15.0104C6.35069 15.3368 5.95833 15.5 5.5 15.5H2.16667ZM10.5 7.16667C10.0417 7.16667 9.64931 7.00347 9.32292 6.67708C8.99653 6.35069 8.83333 5.95833 8.83333 5.5V2.16667C8.83333 1.70833 8.99653 1.31597 9.32292 0.989583C9.64931 0.663194 10.0417 0.5 10.5 0.5H13.8333C14.2917 0.5 14.684 0.663194 15.0104 0.989583C15.3368 1.31597 15.5 1.70833 15.5 2.16667V5.5C15.5 5.95833 15.3368 6.35069 15.0104 6.67708C14.684 7.00347 14.2917 7.16667 13.8333 7.16667H10.5ZM10.5 15.5C10.0417 15.5 9.64931 15.3368 9.32292 15.0104C8.99653 14.684 8.83333 14.2917 8.83333 13.8333V10.5C8.83333 10.0417 8.99653 9.64931 9.32292 9.32292C9.64931 8.99653 10.0417 8.83333 10.5 8.83333H13.8333C14.2917 8.83333 14.684 8.99653 15.0104 9.32292C15.3368 9.64931 15.5 10.0417 15.5 10.5V13.8333C15.5 14.2917 15.3368 14.684 15.0104 15.0104C14.684 15.3368 14.2917 15.5 13.8333 15.5H10.5ZM2.16667 5.5H5.5V2.16667H2.16667V5.5ZM10.5 5.5H13.8333V2.16667H10.5V5.5ZM10.5 13.8333H13.8333V10.5H10.5V13.8333ZM2.16667 13.8333H5.5V10.5H2.16667V13.8333Z" fill="#1C1B1F"/>
</svg>
