<svg width="32" height="32" viewBox="0 0 32 32" fill="none" xmlns="http://www.w3.org/2000/svg">
<path d="M32 3.33333V21.2083C32 21.5972 31.9028 21.9167 31.7083 22.1667C31.5139 22.4167 31.2639 22.6111 30.9583 22.75C30.6528 22.8889 30.3472 22.9375 30.0417 22.8958C29.7361 22.8542 29.4444 22.6944 29.1667 22.4167L9.58332 2.83333C9.30555 2.55556 9.14582 2.26389 9.10416 1.95833C9.06249 1.65278 9.1111 1.34722 9.24999 1.04167C9.38888 0.736111 9.58332 0.486111 9.83332 0.291667C10.0833 0.0972222 10.4028 0 10.7917 0H28.6667C29.5833 0 30.368 0.326389 31.0208 0.979167C31.6736 1.63194 32 2.41667 32 3.33333ZM5.33332 30C4.41666 30 3.63193 29.6736 2.97916 29.0208C2.32638 28.3681 1.99999 27.5833 1.99999 26.6667V4.66667L0.49999 3.16667C0.194434 2.86111 0.0416565 2.47222 0.0416565 2C0.0416565 1.52778 0.194434 1.13889 0.49999 0.833333C0.805546 0.527778 1.19443 0.375 1.66666 0.375C2.13888 0.375 2.52777 0.527778 2.83332 0.833333L31.1667 29.1667C31.4722 29.4722 31.625 29.8611 31.625 30.3333C31.625 30.8056 31.4722 31.1944 31.1667 31.5C30.8611 31.8056 30.4722 31.9583 30 31.9583C29.5278 31.9583 29.1389 31.8056 28.8333 31.5L27.3333 30H5.33332ZM20.625 23.3333L17.125 19.8333L15.75 21.6667L12.6667 17.5417C12.5 17.3194 12.2778 17.2083 12 17.2083C11.7222 17.2083 11.5 17.3194 11.3333 17.5417L7.99999 22C7.77777 22.2778 7.74999 22.5694 7.91666 22.875C8.08332 23.1806 8.33332 23.3333 8.66666 23.3333H20.625Z" fill="#344054"/>
</svg>
