<svg width="26" height="27" viewBox="0 0 26 27" fill="none" xmlns="http://www.w3.org/2000/svg">
<path d="M21.4007 6.64536C21.4007 7.50409 20.7137 8.19108 19.855 8.19108C18.9962 8.19108 18.3093 7.50409 18.3093 6.64536C18.3093 5.78663 18.9962 5.09965 19.855 5.09965C20.7137 5.09965 21.4007 5.78663 21.4007 6.64536ZM25.8661 13.5152C25.8661 17.0074 25.8518 17.4511 25.7945 18.825C25.7373 20.199 25.5083 21.1293 25.1934 21.9451C24.8642 22.7895 24.4205 23.5051 23.7049 24.2207C22.9893 24.9363 22.2737 25.38 21.4293 25.7092C20.6135 26.0241 19.6689 26.2387 18.3093 26.3103C16.9353 26.3676 16.4916 26.3819 12.9994 26.3819C9.50728 26.3819 9.0636 26.3676 7.68963 26.3103C6.31567 26.2531 5.38537 26.0241 4.56958 25.7092C3.72516 25.38 3.00956 24.9363 2.29395 24.2207C1.57834 23.5051 1.13466 22.7895 0.805484 21.9451C0.490617 21.1293 0.275934 20.1847 0.204373 18.825C0.147125 17.4511 0.132812 17.0074 0.132812 13.5152C0.132812 10.023 0.147125 9.57936 0.204373 8.20539C0.261622 6.83142 0.490617 5.90113 0.805484 5.08534C1.13466 4.24092 1.57834 3.52531 2.29395 2.8097C3.00956 2.09409 3.72516 1.65041 4.56958 1.32123C5.38537 1.00636 6.32998 0.791681 7.68963 0.72012C9.0636 0.662872 9.50728 0.64856 12.9994 0.64856C16.4916 0.64856 16.9353 0.662872 18.3093 0.72012C19.6832 0.777369 20.6135 1.00636 21.4293 1.32123C22.2737 1.65041 22.9893 2.09409 23.7049 2.8097C24.4205 3.52531 24.8642 4.24092 25.1934 5.08534C25.5083 5.90113 25.723 6.84573 25.7945 8.20539C25.8518 9.57936 25.8661 10.023 25.8661 13.5152ZM23.5475 13.5152C23.5475 10.0803 23.5475 9.66523 23.4759 8.30558C23.4187 7.0461 23.204 6.37343 23.0323 5.91544C22.8033 5.31433 22.517 4.88497 22.0734 4.44129C21.6297 3.99761 21.2003 3.71137 20.5992 3.48237C20.1412 3.31063 19.4685 3.09594 18.2091 3.03869C16.8494 2.98145 16.4487 2.96713 12.9994 2.96713C9.55021 2.96713 9.14947 2.96713 7.78982 3.03869C6.53035 3.09594 5.85768 3.31063 5.39969 3.48237C4.79858 3.71137 4.36921 3.99761 3.92553 4.44129C3.48186 4.88497 3.19561 5.31433 2.96662 5.91544C2.79487 6.37343 2.58019 7.0461 2.52294 8.30558C2.46569 9.66523 2.45138 10.066 2.45138 13.5152C2.45138 16.9644 2.45138 17.3652 2.52294 18.7248C2.58019 19.9843 2.79487 20.657 2.96662 21.115C3.19561 21.7161 3.48186 22.1455 3.92553 22.5891C4.36921 23.0328 4.79858 23.3191 5.39969 23.5481C5.85768 23.7198 6.53035 23.9345 7.78982 23.9917C9.14947 24.049 9.55021 24.0633 12.9994 24.0633C16.4487 24.0633 16.8494 24.0633 18.2091 23.9917C19.4685 23.9345 20.1412 23.7198 20.5992 23.5481C21.2003 23.3191 21.6297 23.0328 22.0734 22.5891C22.517 22.1455 22.8033 21.7161 23.0323 21.115C23.204 20.657 23.4187 19.9843 23.4759 18.7248C23.5332 17.3652 23.5475 16.9644 23.5475 13.5152ZM19.5973 13.5152C19.5973 17.1648 16.6347 20.1274 12.9851 20.1274C9.33553 20.1274 6.37291 17.1648 6.37291 13.5152C6.37291 9.8656 9.33553 6.90298 12.9851 6.90298C16.6347 6.90298 19.5973 9.8656 19.5973 13.5152ZM17.2788 13.5152C17.2788 11.1394 15.3609 9.22156 12.9851 9.22156C10.6093 9.22156 8.69148 11.1394 8.69148 13.5152C8.69148 15.891 10.6093 17.8089 12.9851 17.8089C15.3609 17.8089 17.2788 15.891 17.2788 13.5152Z" fill="white"/>
</svg>
