<svg width="22" height="22" viewBox="0 0 22 22" fill="none" xmlns="http://www.w3.org/2000/svg">
<path fill-rule="evenodd" clip-rule="evenodd" d="M11.0004 0.679993C4.92847 0.679993 0.000488281 4.50799 0.000488281 9.21599C0.000488281 12.153 1.90348 14.716 4.80747 16.278L3.58648 20.755C3.56344 20.844 3.56818 20.938 3.60006 21.0243C3.63195 21.1106 3.68945 21.185 3.76486 21.2377C3.84027 21.2904 3.92998 21.3187 4.02196 21.3189C4.11395 21.3192 4.2038 21.2913 4.27947 21.239L9.62545 17.686C10.0765 17.686 10.5384 17.763 11.0004 17.763C17.0724 17.763 22.0004 13.935 22.0004 9.21599C22.0004 4.49699 17.0724 0.679993 11.0004 0.679993Z" fill="#171719"/>
</svg>
