<svg width="24" height="12" viewBox="0 0 24 12" fill="none" xmlns="http://www.w3.org/2000/svg">
<path d="M6.16634 11.8333C4.55245 11.8333 3.17676 11.2645 2.03926 10.127C0.901758 8.98954 0.333008 7.61385 0.333008 5.99996C0.333008 4.38607 0.901758 3.01038 2.03926 1.87288C3.17676 0.735376 4.55245 0.166626 6.16634 0.166626H9.66634C9.9969 0.166626 10.274 0.278432 10.4976 0.502043C10.7212 0.725654 10.833 1.00274 10.833 1.33329C10.833 1.66385 10.7212 1.94093 10.4976 2.16454C10.274 2.38815 9.9969 2.49996 9.66634 2.49996H6.16634C5.19412 2.49996 4.36773 2.84024 3.68717 3.52079C3.00662 4.20135 2.66634 5.02774 2.66634 5.99996C2.66634 6.97218 3.00662 7.79857 3.68717 8.47913C4.36773 9.15968 5.19412 9.49996 6.16634 9.49996H9.66634C9.9969 9.49996 10.274 9.61176 10.4976 9.83538C10.7212 10.059 10.833 10.3361 10.833 10.6666C10.833 10.9972 10.7212 11.2743 10.4976 11.4979C10.274 11.7215 9.9969 11.8333 9.66634 11.8333H6.16634ZM8.49967 7.16663C8.16912 7.16663 7.89204 7.05482 7.66842 6.83121C7.44481 6.6076 7.33301 6.33051 7.33301 5.99996C7.33301 5.6694 7.44481 5.39232 7.66842 5.16871C7.89204 4.9451 8.16912 4.83329 8.49967 4.83329H15.4997C15.8302 4.83329 16.1073 4.9451 16.3309 5.16871C16.5545 5.39232 16.6663 5.6694 16.6663 5.99996C16.6663 6.33051 16.5545 6.6076 16.3309 6.83121C16.1073 7.05482 15.8302 7.16663 15.4997 7.16663H8.49967ZM14.333 11.8333C14.0025 11.8333 13.7254 11.7215 13.5018 11.4979C13.2781 11.2743 13.1663 10.9972 13.1663 10.6666C13.1663 10.3361 13.2781 10.059 13.5018 9.83538C13.7254 9.61176 14.0025 9.49996 14.333 9.49996H17.833C18.8052 9.49996 19.6316 9.15968 20.3122 8.47913C20.9927 7.79857 21.333 6.97218 21.333 5.99996C21.333 5.02774 20.9927 4.20135 20.3122 3.52079C19.6316 2.84024 18.8052 2.49996 17.833 2.49996H14.333C14.0025 2.49996 13.7254 2.38815 13.5018 2.16454C13.2781 1.94093 13.1663 1.66385 13.1663 1.33329C13.1663 1.00274 13.2781 0.725654 13.5018 0.502043C13.7254 0.278432 14.0025 0.166626 14.333 0.166626H17.833C19.4469 0.166626 20.8226 0.735376 21.9601 1.87288C23.0976 3.01038 23.6663 4.38607 23.6663 5.99996C23.6663 7.61385 23.0976 8.98954 21.9601 10.127C20.8226 11.2645 19.4469 11.8333 17.833 11.8333H14.333Z" fill="#1C1B1F"/>
</svg>
