<svg width="15" height="17" viewBox="0 0 15 17" fill="none" xmlns="http://www.w3.org/2000/svg">
<path d="M7.49967 15.125C9.19412 13.5695 10.4511 12.1563 11.2705 10.8854C12.09 9.6146 12.4997 8.48613 12.4997 7.50002C12.4997 5.98613 12.017 4.74655 11.0518 3.78127C10.0865 2.81599 8.90245 2.33335 7.49967 2.33335C6.0969 2.33335 4.91287 2.81599 3.94759 3.78127C2.98231 4.74655 2.49967 5.98613 2.49967 7.50002C2.49967 8.48613 2.9094 9.6146 3.72884 10.8854C4.54829 12.1563 5.80523 13.5695 7.49967 15.125ZM7.49967 16.7709C7.30523 16.7709 7.11079 16.7361 6.91634 16.6667C6.7219 16.5972 6.54829 16.4931 6.39551 16.3542C5.49273 15.5209 4.69412 14.7084 3.99967 13.9167C3.30523 13.125 2.72537 12.3577 2.26009 11.6146C1.79481 10.8715 1.44065 10.1563 1.19759 9.46877C0.954536 8.78127 0.833008 8.12502 0.833008 7.50002C0.833008 5.41669 1.50315 3.75697 2.84342 2.52085C4.1837 1.28474 5.73579 0.666687 7.49967 0.666687C9.26356 0.666687 10.8156 1.28474 12.1559 2.52085C13.4962 3.75697 14.1663 5.41669 14.1663 7.50002C14.1663 8.12502 14.0448 8.78127 13.8018 9.46877C13.5587 10.1563 13.2045 10.8715 12.7393 11.6146C12.274 12.3577 11.6941 13.125 10.9997 13.9167C10.3052 14.7084 9.50662 15.5209 8.60384 16.3542C8.45106 16.4931 8.27745 16.5972 8.08301 16.6667C7.88856 16.7361 7.69412 16.7709 7.49967 16.7709ZM7.49967 9.00002C7.95801 9.00002 8.35037 8.83683 8.67676 8.51044C9.00315 8.18405 9.16634 7.79169 9.16634 7.33335C9.16634 6.87502 9.00315 6.48266 8.67676 6.15627C8.35037 5.82988 7.95801 5.66669 7.49967 5.66669C7.04134 5.66669 6.64898 5.82988 6.32259 6.15627C5.9962 6.48266 5.83301 6.87502 5.83301 7.33335C5.83301 7.79169 5.9962 8.18405 6.32259 8.51044C6.64898 8.83683 7.04134 9.00002 7.49967 9.00002Z" fill="#1C1B1F"/>
</svg>
