<svg width="32" height="33" viewBox="0 0 32 33" fill="none" xmlns="http://www.w3.org/2000/svg">
<path d="M17.0465 2.11499L18.965 2.3563C23.5893 3.20005 26.8416 6.54693 28.0005 11.1932L25.6587 11.8406C24.7667 8.31655 22.4924 5.7628 18.9982 4.96462C15.365 4.13493 10.9613 4.84255 8.63311 8.07974C5.51808 12.411 5.56058 22.0894 9.47221 25.9284C12.9229 29.3158 20.5979 29.3535 23.4661 25.1302C25.0397 22.8133 24.709 19.5632 22.25 18.0849C22.1813 18.0883 22.0304 19.1104 21.989 19.2763C21.0889 22.9241 18.1068 24.8051 14.5172 23.8714C9.94843 22.6828 9.48093 16.7406 13.8873 14.9079C15.7044 14.1525 17.9232 14.2678 19.8253 14.5412C19.5027 12.4543 18.3215 11.3591 16.2564 11.3681C14.9634 11.3737 13.9205 11.8209 13.1435 12.9037L11.1858 11.5622C11.1422 11.5206 11.1695 11.4919 11.1875 11.4497C11.3275 11.1234 12.0473 10.3956 12.335 10.1571C14.3177 8.51287 17.636 8.36099 19.7561 9.80549C21.5476 11.0261 22.1873 13.1996 22.3432 15.3169C24.733 16.2906 26.4738 18.4365 26.7931 21.0994C27.369 25.8969 23.6399 29.6871 19.3371 30.5972L17.1015 30.9043C16.5234 30.8807 15.9349 30.9364 15.3579 30.9043C6.87481 30.4341 3.7053 23.373 4.02132 15.4108C4.3101 8.13993 7.90244 2.53124 15.3574 2.11499H17.0465ZM19.8787 17.1298C18.4446 16.8936 16.7135 16.7203 15.2914 17.0887C13.9925 17.4257 12.845 18.5091 13.3691 19.9952C13.8884 21.4678 15.918 21.7069 17.2116 21.4318C19.1666 21.0161 19.7566 18.9399 19.8787 17.1292V17.1298Z" fill="white"/>
</svg>
