<svg width="24" height="23" viewBox="0 0 24 23" fill="none" xmlns="http://www.w3.org/2000/svg">
<path d="M5.00016 19L2.31683 21.6833C1.94739 22.0528 1.52447 22.1354 1.04808 21.9312C0.571691 21.7271 0.333496 21.3625 0.333496 20.8375V2.66665C0.333496 2.02498 0.561968 1.47567 1.01891 1.01873C1.47586 0.561785 2.02516 0.333313 2.66683 0.333313H21.3335C21.9752 0.333313 22.5245 0.561785 22.9814 1.01873C23.4384 1.47567 23.6668 2.02498 23.6668 2.66665V16.6666C23.6668 17.3083 23.4384 17.8576 22.9814 18.3146C22.5245 18.7715 21.9752 19 21.3335 19H5.00016ZM7.3335 10.8333C7.66405 10.8333 7.94114 10.7215 8.16475 10.4979C8.38836 10.2743 8.50016 9.9972 8.50016 9.66665C8.50016 9.33609 8.38836 9.05901 8.16475 8.8354C7.94114 8.61178 7.66405 8.49998 7.3335 8.49998C7.00294 8.49998 6.72586 8.61178 6.50225 8.8354C6.27864 9.05901 6.16683 9.33609 6.16683 9.66665C6.16683 9.9972 6.27864 10.2743 6.50225 10.4979C6.72586 10.7215 7.00294 10.8333 7.3335 10.8333ZM12.0002 10.8333C12.3307 10.8333 12.6078 10.7215 12.8314 10.4979C13.055 10.2743 13.1668 9.9972 13.1668 9.66665C13.1668 9.33609 13.055 9.05901 12.8314 8.8354C12.6078 8.61178 12.3307 8.49998 12.0002 8.49998C11.6696 8.49998 11.3925 8.61178 11.1689 8.8354C10.9453 9.05901 10.8335 9.33609 10.8335 9.66665C10.8335 9.9972 10.9453 10.2743 11.1689 10.4979C11.3925 10.7215 11.6696 10.8333 12.0002 10.8333ZM16.6668 10.8333C16.9974 10.8333 17.2745 10.7215 17.4981 10.4979C17.7217 10.2743 17.8335 9.9972 17.8335 9.66665C17.8335 9.33609 17.7217 9.05901 17.4981 8.8354C17.2745 8.61178 16.9974 8.49998 16.6668 8.49998C16.3363 8.49998 16.0592 8.61178 15.8356 8.8354C15.612 9.05901 15.5002 9.33609 15.5002 9.66665C15.5002 9.9972 15.612 10.2743 15.8356 10.4979C16.0592 10.7215 16.3363 10.8333 16.6668 10.8333Z" fill="white"/>
</svg>
