<svg width="21" height="20" viewBox="0 0 21 20" fill="none" xmlns="http://www.w3.org/2000/svg">
<path d="M4.71436 16.8572L2.41436 19.1572C2.09769 19.4738 1.73519 19.5447 1.32686 19.3697C0.918522 19.1947 0.714355 18.8822 0.714355 18.4322V2.85718C0.714355 2.30718 0.910189 1.83634 1.30186 1.44468C1.69352 1.05301 2.16436 0.857178 2.71436 0.857178H18.7144C19.2644 0.857178 19.7352 1.05301 20.1269 1.44468C20.5185 1.83634 20.7144 2.30718 20.7144 2.85718V14.8572C20.7144 15.4072 20.5185 15.878 20.1269 16.2697C19.7352 16.6613 19.2644 16.8572 18.7144 16.8572H4.71436ZM3.86436 14.8572H18.7144V2.85718H2.71436V15.9822L3.86436 14.8572ZM6.71436 9.85718C6.99769 9.85718 7.23519 9.76134 7.42686 9.56968C7.61852 9.37801 7.71436 9.14051 7.71436 8.85718C7.71436 8.57384 7.61852 8.33634 7.42686 8.14468C7.23519 7.95301 6.99769 7.85718 6.71436 7.85718C6.43102 7.85718 6.19352 7.95301 6.00186 8.14468C5.81019 8.33634 5.71436 8.57384 5.71436 8.85718C5.71436 9.14051 5.81019 9.37801 6.00186 9.56968C6.19352 9.76134 6.43102 9.85718 6.71436 9.85718ZM10.7144 9.85718C10.9977 9.85718 11.2352 9.76134 11.4269 9.56968C11.6185 9.37801 11.7144 9.14051 11.7144 8.85718C11.7144 8.57384 11.6185 8.33634 11.4269 8.14468C11.2352 7.95301 10.9977 7.85718 10.7144 7.85718C10.431 7.85718 10.1935 7.95301 10.0019 8.14468C9.81019 8.33634 9.71436 8.57384 9.71436 8.85718C9.71436 9.14051 9.81019 9.37801 10.0019 9.56968C10.1935 9.76134 10.431 9.85718 10.7144 9.85718ZM14.7144 9.85718C14.9977 9.85718 15.2352 9.76134 15.4269 9.56968C15.6185 9.37801 15.7144 9.14051 15.7144 8.85718C15.7144 8.57384 15.6185 8.33634 15.4269 8.14468C15.2352 7.95301 14.9977 7.85718 14.7144 7.85718C14.431 7.85718 14.1935 7.95301 14.0019 8.14468C13.8102 8.33634 13.7144 8.57384 13.7144 8.85718C13.7144 9.14051 13.8102 9.37801 14.0019 9.56968C14.1935 9.76134 14.431 9.85718 14.7144 9.85718Z" fill="#1C1B1F"/>
</svg>
