<svg width="16" height="17" viewBox="0 0 16 17" fill="none" xmlns="http://www.w3.org/2000/svg">
<mask id="mask0_56_781" style="mask-type:alpha" maskUnits="userSpaceOnUse" x="0" y="0" width="16" height="17">
<rect y="0.5" width="16" height="16" fill="#D9D9D9"/>
</mask>
<g mask="url(#mask0_56_781)">
<path d="M3.99984 9.83335C3.63317 9.83335 3.31928 9.7028 3.05817 9.44169C2.79706 9.18058 2.6665 8.86669 2.6665 8.50002C2.6665 8.13335 2.79706 7.81946 3.05817 7.55835C3.31928 7.29724 3.63317 7.16669 3.99984 7.16669C4.3665 7.16669 4.68039 7.29724 4.9415 7.55835C5.20262 7.81946 5.33317 8.13335 5.33317 8.50002C5.33317 8.86669 5.20262 9.18058 4.9415 9.44169C4.68039 9.7028 4.3665 9.83335 3.99984 9.83335ZM7.99984 9.83335C7.63317 9.83335 7.31928 9.7028 7.05817 9.44169C6.79706 9.18058 6.6665 8.86669 6.6665 8.50002C6.6665 8.13335 6.79706 7.81946 7.05817 7.55835C7.31928 7.29724 7.63317 7.16669 7.99984 7.16669C8.3665 7.16669 8.68039 7.29724 8.9415 7.55835C9.20262 7.81946 9.33317 8.13335 9.33317 8.50002C9.33317 8.86669 9.20262 9.18058 8.9415 9.44169C8.68039 9.7028 8.3665 9.83335 7.99984 9.83335ZM11.9998 9.83335C11.6332 9.83335 11.3193 9.7028 11.0582 9.44169C10.7971 9.18058 10.6665 8.86669 10.6665 8.50002C10.6665 8.13335 10.7971 7.81946 11.0582 7.55835C11.3193 7.29724 11.6332 7.16669 11.9998 7.16669C12.3665 7.16669 12.6804 7.29724 12.9415 7.55835C13.2026 7.81946 13.3332 8.13335 13.3332 8.50002C13.3332 8.86669 13.2026 9.18058 12.9415 9.44169C12.6804 9.7028 12.3665 9.83335 11.9998 9.83335Z" fill="#1C1B1F"/>
</g>
</svg>
