<svg width="21" height="15" viewBox="0 0 21 15" fill="none" xmlns="http://www.w3.org/2000/svg">
<path d="M6.00001 13V9L1.02501 1.55C0.791676 1.21667 0.775009 0.875 0.975009 0.525C1.17501 0.175 1.47501 0 1.87501 0H12.125C12.525 0 12.825 0.175 13.025 0.525C13.225 0.875 13.2083 1.21667 12.975 1.55L8.00001 9V13H9.00001C9.28334 13 9.52084 13.0958 9.71251 13.2875C9.90418 13.4792 10 13.7167 10 14C10 14.2833 9.90418 14.5208 9.71251 14.7125C9.52084 14.9042 9.28334 15 9.00001 15H5.00001C4.71668 15 4.47918 14.9042 4.28751 14.7125C4.09584 14.5208 4.00001 14.2833 4.00001 14C4.00001 13.7167 4.09584 13.4792 4.28751 13.2875C4.47918 13.0958 4.71668 13 5.00001 13H6.00001ZM4.90001 4H9.10001L10.5 2H3.50001L4.90001 4ZM15 15C14.1667 15 13.4583 14.7083 12.875 14.125C12.2917 13.5417 12 12.8333 12 12C12 11.1667 12.2917 10.4583 12.875 9.875C13.4583 9.29167 14.1667 9 15 9C15.1833 9 15.3583 9.0125 15.525 9.0375C15.6917 9.0625 15.85 9.11667 16 9.2V1C16 0.716667 16.0958 0.479167 16.2875 0.2875C16.4792 0.0958333 16.7167 0 17 0H19.5C19.9167 0 20.2708 0.145833 20.5625 0.4375C20.8542 0.729167 21 1.08333 21 1.5C21 1.91667 20.8542 2.27083 20.5625 2.5625C20.2708 2.85417 19.9167 3 19.5 3H18V12C18 12.8333 17.7083 13.5417 17.125 14.125C16.5417 14.7083 15.8333 15 15 15Z" fill="#344054"/>
</svg>
