<svg width="20" height="20" viewBox="0 0 20 20" fill="none" xmlns="http://www.w3.org/2000/svg">
<path d="M8.65 13.7499L13.525 10.6249C13.7583 10.4749 13.875 10.2666 13.875 9.99994C13.875 9.73327 13.7583 9.52494 13.525 9.37494L8.65 6.24994C8.4 6.08327 8.14583 6.07077 7.8875 6.21244C7.62917 6.35411 7.5 6.57494 7.5 6.87494V13.1249C7.5 13.4249 7.62917 13.6458 7.8875 13.7874C8.14583 13.9291 8.4 13.9166 8.65 13.7499ZM10 19.9999C8.61667 19.9999 7.31667 19.7374 6.1 19.2124C4.88333 18.6874 3.825 17.9749 2.925 17.0749C2.025 16.1749 1.3125 15.1166 0.7875 13.8999C0.2625 12.6833 0 11.3833 0 9.99994C0 8.61661 0.2625 7.31661 0.7875 6.09994C1.3125 4.88327 2.025 3.82494 2.925 2.92494C3.825 2.02494 4.88333 1.31244 6.1 0.787439C7.31667 0.262439 8.61667 -6.10352e-05 10 -6.10352e-05C11.3833 -6.10352e-05 12.6833 0.262439 13.9 0.787439C15.1167 1.31244 16.175 2.02494 17.075 2.92494C17.975 3.82494 18.6875 4.88327 19.2125 6.09994C19.7375 7.31661 20 8.61661 20 9.99994C20 11.3833 19.7375 12.6833 19.2125 13.8999C18.6875 15.1166 17.975 16.1749 17.075 17.0749C16.175 17.9749 15.1167 18.6874 13.9 19.2124C12.6833 19.7374 11.3833 19.9999 10 19.9999ZM10 17.9999C12.2333 17.9999 14.125 17.2249 15.675 15.6749C17.225 14.1249 18 12.2333 18 9.99994C18 7.76661 17.225 5.87494 15.675 4.32494C14.125 2.77494 12.2333 1.99994 10 1.99994C7.76667 1.99994 5.875 2.77494 4.325 4.32494C2.775 5.87494 2 7.76661 2 9.99994C2 12.2333 2.775 14.1249 4.325 15.6749C5.875 17.2249 7.76667 17.9999 10 17.9999Z" fill="#1C1B1F"/>
</svg>
