<svg width="15" height="15" viewBox="0 0 15 15" fill="none" xmlns="http://www.w3.org/2000/svg">
<path d="M0 5.83333V0.833333C0 0.597222 0.0798611 0.399306 0.239583 0.239583C0.399306 0.0798611 0.597222 0 0.833333 0H5.83333C6.06944 0 6.26736 0.0798611 6.42708 0.239583C6.58681 0.399306 6.66667 0.597222 6.66667 0.833333V5.83333C6.66667 6.06944 6.58681 6.26736 6.42708 6.42708C6.26736 6.58681 6.06944 6.66667 5.83333 6.66667H0.833333C0.597222 6.66667 0.399306 6.58681 0.239583 6.42708C0.0798611 6.26736 0 6.06944 0 5.83333ZM1.66667 5H5V1.66667H1.66667V5ZM0 14.1667V9.16667C0 8.93056 0.0798611 8.73264 0.239583 8.57292C0.399306 8.41319 0.597222 8.33333 0.833333 8.33333H5.83333C6.06944 8.33333 6.26736 8.41319 6.42708 8.57292C6.58681 8.73264 6.66667 8.93056 6.66667 9.16667V14.1667C6.66667 14.4028 6.58681 14.6007 6.42708 14.7604C6.26736 14.9201 6.06944 15 5.83333 15H0.833333C0.597222 15 0.399306 14.9201 0.239583 14.7604C0.0798611 14.6007 0 14.4028 0 14.1667ZM1.66667 13.3333H5V10H1.66667V13.3333ZM8.33333 5.83333V0.833333C8.33333 0.597222 8.41319 0.399306 8.57292 0.239583C8.73264 0.0798611 8.93056 0 9.16667 0H14.1667C14.4028 0 14.6007 0.0798611 14.7604 0.239583C14.9201 0.399306 15 0.597222 15 0.833333V5.83333C15 6.06944 14.9201 6.26736 14.7604 6.42708C14.6007 6.58681 14.4028 6.66667 14.1667 6.66667H9.16667C8.93056 6.66667 8.73264 6.58681 8.57292 6.42708C8.41319 6.26736 8.33333 6.06944 8.33333 5.83333ZM10 5H13.3333V1.66667H10V5ZM13.3333 15V13.3333H15V15H13.3333ZM8.33333 10V8.33333H10V10H8.33333ZM10 11.6667V10H11.6667V11.6667H10ZM8.33333 13.3333V11.6667H10V13.3333H8.33333ZM10 15V13.3333H11.6667V15H10ZM11.6667 13.3333V11.6667H13.3333V13.3333H11.6667ZM11.6667 10V8.33333H13.3333V10H11.6667ZM13.3333 11.6667V10H15V11.6667H13.3333Z" fill="#1C1B1F"/>
</svg>
