<svg width="23" height="20" viewBox="0 0 23 20" fill="none" xmlns="http://www.w3.org/2000/svg">
<path d="M2.5 20C1.95 20 1.47917 19.8042 1.0875 19.4125C0.695833 19.0208 0.5 18.55 0.5 18V6C0.5 5.45 0.695833 4.97917 1.0875 4.5875C1.47917 4.19583 1.95 4 2.5 4H5.65L6.9 2.65C7.08333 2.45 7.30417 2.29167 7.5625 2.175C7.82083 2.05833 8.09167 2 8.375 2H12.5C12.7833 2 13.0208 2.09583 13.2125 2.2875C13.4042 2.47917 13.5 2.71667 13.5 3C13.5 3.28333 13.4042 3.52083 13.2125 3.7125C13.0208 3.90417 12.7833 4 12.5 4H8.375L6.55 6H2.5V18H18.5V10C18.5 9.71667 18.5958 9.47917 18.7875 9.2875C18.9792 9.09583 19.2167 9 19.5 9C19.7833 9 20.0208 9.09583 20.2125 9.2875C20.4042 9.47917 20.5 9.71667 20.5 10V18C20.5 18.55 20.3042 19.0208 19.9125 19.4125C19.5208 19.8042 19.05 20 18.5 20H2.5ZM18.5 4H17.5C17.2167 4 16.9792 3.90417 16.7875 3.7125C16.5958 3.52083 16.5 3.28333 16.5 3C16.5 2.71667 16.5958 2.47917 16.7875 2.2875C16.9792 2.09583 17.2167 2 17.5 2H18.5V1C18.5 0.716667 18.5958 0.479167 18.7875 0.2875C18.9792 0.0958333 19.2167 0 19.5 0C19.7833 0 20.0208 0.0958333 20.2125 0.2875C20.4042 0.479167 20.5 0.716667 20.5 1V2H21.5C21.7833 2 22.0208 2.09583 22.2125 2.2875C22.4042 2.47917 22.5 2.71667 22.5 3C22.5 3.28333 22.4042 3.52083 22.2125 3.7125C22.0208 3.90417 21.7833 4 21.5 4H20.5V5C20.5 5.28333 20.4042 5.52083 20.2125 5.7125C20.0208 5.90417 19.7833 6 19.5 6C19.2167 6 18.9792 5.90417 18.7875 5.7125C18.5958 5.52083 18.5 5.28333 18.5 5V4ZM10.5 16.5C11.75 16.5 12.8125 16.0625 13.6875 15.1875C14.5625 14.3125 15 13.25 15 12C15 10.75 14.5625 9.6875 13.6875 8.8125C12.8125 7.9375 11.75 7.5 10.5 7.5C9.25 7.5 8.1875 7.9375 7.3125 8.8125C6.4375 9.6875 6 10.75 6 12C6 13.25 6.4375 14.3125 7.3125 15.1875C8.1875 16.0625 9.25 16.5 10.5 16.5ZM10.5 14.5C9.8 14.5 9.20833 14.2583 8.725 13.775C8.24167 13.2917 8 12.7 8 12C8 11.3 8.24167 10.7083 8.725 10.225C9.20833 9.74167 9.8 9.5 10.5 9.5C11.2 9.5 11.7917 9.74167 12.275 10.225C12.7583 10.7083 13 11.3 13 12C13 12.7 12.7583 13.2917 12.275 13.775C11.7917 14.2583 11.2 14.5 10.5 14.5Z" fill="#1C1B1F"/>
</svg>
